- 
http://www.Speed.Cd      fast  and The Hottest Private Tracker on the net

   signup is open now

Please Seed back to make the speed Faster!!!

------------------nfo--------------------------
-








































          
          
              
              
                    
                    
                    
                    

Zoolander.2001.HDTVRiP.XviD.AC3-SiC

Poster:
[IMG]http://img706.imageshack.us/img706/3335/11156121.jpg[/IMG]

IMDB Link: 
http://www.imdb.com/title/tt0196229/

Description:
At the end of his career, a clueless fashion model is brainwashed to kill the Prime Minister of Malaysia.

MediaInfo:
General
Complete name                    : Zoolander.2001.HDTVRiP.XviD.AC3-SiC.avi
Format                           : AVI
Format/Info                      : Audio Video Interleave
File size                        : 1.37 GiB
Duration                         : 1h 23mn
Overall bit rate                 : 2 357 Kbps

Video
ID                               : 0
Format                           : MPEG-4 Visual
Format profile                   : Advanced Simple@L5
Format settings, BVOP            : 2
Format settings, QPel            : No
Format settings, GMC             : No warppoints
Format settings, Matrix          : Default (H.263)
Muxing mode                      : Packed bitstream
Codec ID                         : XVID
Codec ID/Hint                    : XviD
Duration                         : 1h 23mn
Bit rate                         : 1 901 Kbps
Width                            : 720 pixels
Height                           : 304 pixels
Display aspect ratio             : 2.35:1
Frame rate                       : 25.000 fps
Color space                      : YUV
Chroma subsampling               : 4:2:0
Bit depth                        : 8 bits
Scan type                        : Progressive
Compression mode                 : Lossy
Bits/(Pixel*Frame)               : 0.347
Stream size                      : 1.10 GiB (81%)
Writing library                  : XviD 1.1.2 (UTC 2006-11-01)

Audio
ID                               : 1
Format                           : AC-3
Format/Info                      : Audio Coding 3
Mode extension                   : CM (complete main)
Codec ID                         : 2000
Duration                         : 1h 23mn
Bit rate mode                    : Constant
Bit rate                         : 448 Kbps
Channel(s)                       : 6 channels
Channel positions                : Front: L C R, Side: L R, LFE
Sampling rate                    : 48.0 KHz
Bit depth                        : 16 bits
Compression mode                 : Lossy
Stream size                      : 266 MiB (19%)
Alignment                        : Aligned on interleaves
Interleave, duration             : 64 ms (1.60 video frames)
Interleave, preload duration     : 192 ms
Title                            : zl


Screenshots:
[IMG]http://img5.imageshack.us/img5/6675/scrncp00002.png[/IMG]
[IMG]http://img820.imageshack.us/img820/6869/scrncp00008.png[/IMG]
[IMG]http://img253.imageshack.us/img253/6585/scrncp00020.png[/IMG]
[IMG]http://img819.imageshack.us/img819/7941/scrncp00025.png[/IMG]
[IMG]http://img408.imageshack.us/img408/7356/scrncp00026.png[/IMG]

Note : Always loved this movie, and it still hasnt hit bluray yet, so enjoy a nice encode from a 720p HDTV cap! 

Source: Zoolander.2001.720p.HDTV.x264-HDL

Enjoy!

Respects to CaptainHomey, Cyanide, CM8, Rx, THC, ELEKTRI4KA, 
Killerhz, PA, YeFsTe, BoxSlots, MrRep and everyone in the struggle...